2.8Hzhigh3min_grf.mot
version=1
nRows=17
nColumns 19
inDegrees=yes
endheader
time	1_ground_force_vx	1_ground_force_vy	1_ground_force_vz	1_ground_force_px	1_ground_force_py	1_ground_force_pz	1_ground_torque_x	1_ground_torque_y	1_ground_torque_z	2_ground_force_vx	2_ground_force_vy	2_ground_force_vz	2_ground_force_px	2_ground_force_py	2_ground_force_pz	2_ground_torque_x	2_ground_torque_y	2_ground_torque_z
            3.702500	           -6.444050	          120.783643	           -1.071143	           -0.193059	            0.006332	           -0.429021	           -0.019361	            0.362900	           -0.003218	          -25.802724	          127.136071	            5.767683	           -0.177314	            0.005805	           -0.686897	           -0.108140	            0.532829	            0.024172
            3.703000	          -12.454908	          126.198120	           -2.821430	           -0.197199	            0.006328	           -0.428396	            0.020234	           -0.205019	            0.004584	          -25.722481	          130.820715	            5.405360	           -0.177334	            0.005809	           -0.688059	           -0.056948	            0.289627	            0.011967
            3.703500	          -18.645679	          126.380533	           -3.584848	           -0.207317	            0.006304	           -0.423124	            0.084696	           -0.574073	            0.016284	          -25.408110	          134.507209	            4.761368	           -0.177052	            0.005810	           -0.688145	            0.018383	           -0.097318	           -0.003445
            3.704000	          -22.774963	          126.385634	           -4.950285	           -0.202522	            0.006307	           -0.423707	            0.108730	           -0.603376	            0.023633	          -26.546609	          138.371428	            4.447148	           -0.177331	            0.005810	           -0.688287	            0.055115	           -0.287282	           -0.009233
            3.704500	          -24.108051	          125.130202	           -6.511498	           -0.194522	            0.006335	           -0.429702	            0.072057	           -0.374006	            0.019462	          -27.828502	          142.973239	            3.713263	           -0.176488	            0.005811	           -0.687818	            0.039860	           -0.204788	           -0.005319
            3.705000	          -24.888827	          124.952341	           -7.106463	           -0.195326	            0.006323	           -0.427067	            0.007238	           -0.036337	            0.002067	          -29.997575	          146.832763	            3.681049	           -0.175436	            0.005812	           -0.687080	           -0.021136	            0.103456	            0.002594
            3.705500	          -26.679962	          126.579499	           -8.287323	           -0.203385	            0.006304	           -0.423034	            0.005406	           -0.025650	            0.001679	          -31.991835	          154.191424	            3.755097	           -0.175998	            0.005815	           -0.688350	           -0.096686	            0.466001	            0.011349
            3.706000	          -28.515022	          130.185638	           -8.542448	           -0.202070	            0.006312	           -0.424834	            0.060389	           -0.275708	            0.018091	          -32.624061	          160.633724	            3.966065	           -0.174755	            0.005818	           -0.688031	           -0.123438	            0.607779	            0.015006
            3.706500	          -31.219630	          131.986985	           -8.344582	           -0.200119	            0.006324	           -0.427551	            0.139756	           -0.590846	            0.037355	          -31.571024	          167.450456	            4.177630	           -0.176396	            0.005811	           -0.687769	           -0.082139	            0.435662	            0.010869
            3.707000	          -33.737232	          130.718544	           -6.922202	           -0.201469	            0.006308	           -0.423790	            0.093055	           -0.360552	            0.019093	          -29.771146	          175.007294	            4.156865	           -0.176612	            0.005809	           -0.687281	           -0.020991	            0.123397	            0.002931
            3.707500	          -36.347516	          129.271588	           -5.913070	           -0.201104	            0.006297	           -0.421126	            0.018124	           -0.064461	            0.002949	          -28.160392	          182.934947	            3.245859	           -0.177443	            0.005807	           -0.687569	            0.034793	           -0.226022	           -0.004010
            3.708000	          -38.826687	          130.538868	           -7.277193	           -0.194520	            0.006310	           -0.424001	            0.057456	           -0.193171	            0.010769	          -27.809910	          189.568820	            2.377720	           -0.177978	            0.005805	           -0.687695	            0.021267	           -0.144969	           -0.001818
            3.708500	          -41.539054	          133.074451	          -10.148581	           -0.192819	            0.006315	           -0.425056	            0.159268	           -0.510231	            0.038911	          -28.109180	          194.541628	            1.879371	           -0.178696	            0.005802	           -0.687568	           -0.018170	            0.125756	            0.001215
            3.709000	          -43.700855	          138.132287	          -12.643666	           -0.198501	            0.006296	           -0.420824	            0.198186	           -0.626439	            0.057340	          -28.922344	          199.143321	            1.661495	           -0.178995	            0.005803	           -0.687992	           -0.069975	            0.481811	            0.004020
            3.709500	          -44.943032	          143.005316	          -14.041257	           -0.200377	            0.006284	           -0.418145	            0.210162	           -0.668720	            0.065660	          -28.849789	          205.035401	            1.964050	           -0.179156	            0.005803	           -0.688188	           -0.097756	            0.694752	            0.006655
            3.710000	          -45.126067	          145.527624	          -13.708989	           -0.194512	            0.006298	           -0.421128	            0.197989	           -0.638497	            0.060148	          -27.462114	          210.011453	            2.262761	           -0.179878	            0.005801	           -0.688282	           -0.089082	            0.681235	            0.007340
            3.710500	          -45.536430	          146.424744	          -12.741126	           -0.192357	            0.006308	           -0.423374	            0.110932	           -0.356707	            0.031039	          -24.622340	          214.994789	            1.997718	           -0.180463	            0.005797	           -0.687785	           -0.047352	            0.413463	            0.003842
